{"title":"Fair.Game.1995.iNTERNAL.DVDRip.XviD-EXViDiNT","uid":7012071,"size":1467840368,"categoryP":"video","categoryS":"movies","magnet":"?xt=urn:btih:f2713b9d77d57fea6be08b8f2c93320aac7d8387&amp;dn=Fair.Game.1995.iNTERNAL.DVDRip.XviD-EXViDiNT&amp;tr=udp%3A%2F%2Ftracker.openbittorrent.com%3A80&amp;tr=udp%3A%2F%2Fopen.demonii.com%3A1337&amp;tr=udp%3A%2F%2Ftracker.coppersurfer.tk%3A6969&amp;tr=udp%3A%2F%2Fexodus.desync.com%3A6969","seeders":0,"leechers":2,"uploader":"TvTeam","files":7,"time":1328505550,"description":". \n &lt;a href=&quot;\nhttp://www.torrenting.com&quot; rel=&quot;nofollow&quot; target=&quot;_NEW&quot;&gt;\nhttp://www.torrenting.com&lt;/a&gt;          :     Once &amp; For all ;)\n\n\n               www . Torrenting . Com \n\n(((((((((((((= Enjoy No RAR releases =))))))))))))))))))))\n\n\n...................................NFO:....................................\n\n.                                                                                                     \n       \n     \n     \n       \n       \n     \n     \n                                         \n                                         \n                EXVID                    \n                                         \n         \n                                         \n         Filled the Archives             \n                                         \n         \n                                         \n                With:                    \n                                         \n         \n                                         \n                                    \n     E240                           \n                                    \n     SP               (C) 2009      \n                                         \n     \n     \n     \n                                                                                  \n                                                                                   \n                   Fair.Game.1995.iNTERNAL.DVDRip.XviD-EXViDiNT                     \n                                                                                   \n                                                                                  \n     \n                                                                                               \nEXViD aims to iNTERNAL those releases which have been lost in the archives.\nEXViD aims to PRE non-internal releases which have poor sources and are likely skipped by others. &lt;a href=&quot;\nhttp://www.imdb.com/title/tt0113010/&quot; rel=&quot;nofollow&quot; target=&quot;_NEW&quot;&gt;\nhttp://www.imdb.com/title/tt0113010/&lt;/a&gt;\nSubtitles: EN, FR, IT, NL, AR, ES, PT, DE, RO, BG, EN, IT\nDate: 2012.01\n\nDirector: Andrew Sipes\n\nGenres: Action | Thriller\n\nPlot:\nMax Kirkpatrick is a cop who protects Kate McQuean, a civil law attorney, from a renegade KGB\nteam out to terminate her.\n\nCast:\nWilliam Baldwin\t...\tDet. Max Kirkpatrick\nCindy Crawford\t...\tKate McQuean\nSteven Berkoff\t...\tColonel Ilya Pavel Kazak\nChristopher McDonald\t...\tLieutenant Meyerson\nMiguel Sandoval\t...\tEmilio Juantorena\nJohann Carlo\t...\tJodi Kirkpatrick\nSalma Hayek\t...\tRita\nJohn Bedford Lloyd\t...\tDet. Louis Aragon\nOlek Krupa\t...\tZhukov\nJenette Goldstein\t...\tRosa\nMarc Macaulay\t...\tNavigator\nSonny Carl Davis\t...\tBaker\nFrank Medrano\t...\tGraybera\nDon Yesso\t...\tBeanpole\nPaul Dillon\t...\tHacker\n\nStats:\nFormat                                   : AVI\nFormat/Info                              : Audio Video Interleave\nFormat profile                           : OpenDML\nFile size                                : 1.36 GiB\nDuration                                 : 1h 26mn\nOverall bit rate                         : 2 251 Kbps\n\nVideo\nID                                       : 0\nFormat                                   : MPEG-4 Visual\nFormat profile                           : Advanced Simple@L5\nFormat settings, BVOP                    : 2\nFormat settings, QPel                    : No\nFormat settings, GMC                     : No warppoints\nFormat settings, Matrix                  : Default (MPEG)\nCodec ID                                 : XVID\nCodec ID/Hint                            : XviD\nDuration                                 : 1h 26mn\nBit rate                                 : 1 860 Kbps\nWidth                                    : 640 pixels\nHeight                                   : 368 pixels\nDisplay aspect ratio                     : 16:9\nFrame rate                               : 25.000 fps\nColor space                              : YUV\nChroma subsampling                       : 4:2:0\nBit depth                                : 8 bits\nScan type                                : Progressive\nCompression mode                         : Lossy\nBits/(Pixel*Frame)                       : 0.316\nStream size                              : 1.13 GiB (83%)\nWriting library                          : XviD 64\n\nAudio\nID                                       : 1\nFormat                                   : AC-3\nFormat/Info                              : Audio Coding 3\nMode extension                           : CM (complete main)\nCodec ID                                 : 2000\nDuration                                 : 1h 26mn\nBit rate mode                            : Constant\nBit rate                                 : 384 Kbps\nChannel(s)                               : 6 channels\nChannel positions                        : Front: L C R, Side: L R, LFE\nSampling rate                            : 48.0 KHz\nBit depth                                : 16 bits\nCompression mode                         : Lossy\nDelay relative to video                  : 40ms\nStream size                              : 238 MiB (17%)\nAlignment                                : Split accross interleaves\nInterleave, duration                     : 500 ms (12.50 video frames)\nInterleave, preload duration             : 500 ms\n\n\n\nRelease notes:\nEnjoy!\n\nLooking for:\n75TB+ Archives\nDUTCH/FLEMiSH Archives\n                                                                                                    \nGreets: CRBS EPiSODE FiCO FLS iLS KLASSiGER LiPSYNC MADE NODLABS RUNNER SPRiNTER      \n   \n\n                                                                    ASCII DONE BY XX^NFO 2oo9     \n \n\nRLS-Crc: 415243414445:42EECD90","torrent":{"xt":"urn:btih:f2713b9d77d57fea6be08b8f2c93320aac7d8387","amp;dn":"Fair.Game.1995.iNTERNAL.DVDRip.XviD-EXViDiNT","amp;tr":["udp%3A%2F%2Ftracker.openbittorrent.com%3A80","udp%3A%2F%2Fopen.demonii.com%3A1337","udp%3A%2F%2Ftracker.coppersurfer.tk%3A6969","udp%3A%2F%2Fexodus.desync.com%3A6969"],"infoHash":"f2713b9d77d57fea6be08b8f2c93320aac7d8387","infoHashBuffer":{"type":"Buffer","data":[242,113,59,157,119,213,127,234,107,224,139,143,44,147,50,10,172,125,131,135]},"announce":[],"urlList":[]}}